<svg width="157" height="116" viewBox="0 0 157 116" fill="none" xmlns="http://www.w3.org/2000/svg">
<g id="Group 22">
<path id="&#226;&#128;&#153;" d="M130.365 116L143.055 101.5C139.064 99.8889 134.595 96.9083 129.647 92.5583C124.539 88.0472 120.15 82.9722 116.479 77.3333C112.648 71.5333 110.653 65.8139 110.493 60.175C111.77 61.9472 114.244 63.5583 117.915 65.0083C121.427 66.2972 125.098 66.9417 128.929 66.9417C136.111 66.9417 142.576 64.2833 148.322 58.9667C153.909 53.65 156.702 46.2389 156.702 36.7333C156.702 25.4556 153.27 16.5139 146.407 9.90833C139.384 3.30278 130.605 0 120.07 0C109.695 0 100.996 3.70556 93.9732 11.1167C86.9501 18.3667 83.4386 28.8389 83.4386 42.5333C83.4386 55.1 85.8328 66.2167 90.6213 75.8833C95.4097 85.55 101.395 93.7667 108.578 100.533C115.761 107.139 123.023 112.294 130.365 116Z" fill="#E3D000" fill-opacity="0.15"/>
<path id="&#226;&#128;&#153;_2" d="M48.2303 116L61.2721 101.5C57.1709 99.8889 52.5776 96.9083 47.4921 92.5583C42.2425 88.0472 37.7312 82.9722 33.9581 77.3333C30.0209 71.5333 27.9703 65.8139 27.8062 60.175C29.1186 61.9472 31.6614 63.5583 35.4345 65.0083C39.0436 66.2972 42.8167 66.9417 46.7538 66.9417C54.136 66.9417 60.78 64.2833 66.6857 58.9667C72.4274 53.65 75.2983 46.2389 75.2983 36.7333C75.2983 25.4556 71.7712 16.5139 64.7172 9.90833C57.499 3.30278 48.4764 0 37.6492 0C26.986 0 18.0454 3.70556 10.8272 11.1167C3.60909 18.3667 3.05176e-05 28.8389 3.05176e-05 42.5333C3.05176e-05 55.1 2.46075 66.2167 7.38221 75.8833C12.3037 85.55 18.4555 93.7667 25.8377 100.533C33.2198 107.139 40.6841 112.294 48.2303 116Z" fill="#5B0094" fill-opacity="0.15"/>
</g>
</svg>
