<svg width="41" height="40" viewBox="0 0 41 40" fill="none" xmlns="http://www.w3.org/2000/svg">
<path d="M12.5966 8.74914V8.1242C12.5966 7.95846 12.6624 7.7995 12.7796 7.6823C12.8968 7.5651 13.0558 7.49926 13.2215 7.49926H15.7213C15.887 7.49926 16.046 7.5651 16.1632 7.6823C16.2804 7.7995 16.3462 7.95846 16.3462 8.1242V8.74914H23.8455V8.1242C23.8455 7.95846 23.9113 7.7995 24.0285 7.6823C24.1457 7.5651 24.3047 7.49926 24.4704 7.49926H26.9702C27.1359 7.49926 27.2949 7.5651 27.4121 7.6823C27.5293 7.7995 27.5951 7.95846 27.5951 8.1242V8.74914C28.2581 8.74914 28.8939 8.48577 29.3627 8.01698C29.8315 7.54818 30.0949 6.91236 30.0949 6.24939V4.99951C30.0949 4.50228 29.8973 4.02541 29.5457 3.67381C29.1942 3.32222 28.7173 3.12469 28.2201 3.12469H23.8455V1.87482C23.8455 1.37758 23.648 0.900717 23.2964 0.549121C22.9448 0.197525 22.4679 0 21.9707 0L18.221 0C17.7238 0 17.2469 0.197525 16.8953 0.549121C16.5437 0.900717 16.3462 1.37758 16.3462 1.87482V3.12469H11.9716C11.4744 3.12469 10.9975 3.32222 10.646 3.67381C10.2944 4.02541 10.0968 4.50228 10.0968 4.99951V6.24939C10.0968 6.91236 10.3602 7.54818 10.829 8.01698C11.2978 8.48577 11.9336 8.74914 12.5966 8.74914ZM17.5961 1.87482C17.5961 1.70907 17.6619 1.55012 17.7791 1.43292C17.8963 1.31572 18.0553 1.24988 18.221 1.24988H21.9707C22.1364 1.24988 22.2954 1.31572 22.4126 1.43292C22.5298 1.55012 22.5956 1.70907 22.5956 1.87482V3.12469H17.5961V1.87482ZM25.0954 8.74914H26.3452V9.99902H25.0954V8.74914ZM13.8465 8.74914H15.0963V9.99902H13.8465V8.74914ZM14.5964 30.0208C14.3302 29.7037 13.9489 29.5052 13.5365 29.469C13.124 29.4328 12.714 29.5618 12.3966 29.8277L9.04319 32.6399C8.72561 32.9057 8.52656 33.2867 8.48976 33.6992C8.45297 34.1117 8.58144 34.5219 8.84696 34.8397C9.11319 35.1568 9.49442 35.3553 9.90689 35.3915C10.3194 35.4277 10.7293 35.2987 11.0467 35.0328L14.3995 32.2206C14.7172 31.9549 14.9164 31.5739 14.9533 31.1614C14.9902 30.749 14.8618 30.3387 14.5964 30.0208ZM22.1319 35.1153C21.8657 34.7982 21.4844 34.5997 21.072 34.5635C20.6595 34.5273 20.2495 34.6563 19.9321 34.9222L17.5367 36.9339C17.2194 37.2001 17.0208 37.5815 16.9846 37.9941C16.9484 38.4067 17.0775 38.8168 17.3436 39.1343C17.6099 39.4516 17.9912 39.6502 18.4038 39.6864C18.8165 39.7226 19.2266 39.5935 19.544 39.3274L21.9388 37.3188C22.0964 37.187 22.2264 37.0253 22.3214 36.8431C22.4164 36.6609 22.4745 36.4618 22.4924 36.2571C22.5104 36.0524 22.4878 35.8462 22.4259 35.6503C22.364 35.4544 22.2641 35.2726 22.1319 35.1153ZM12.0685 28.4691C12.3858 28.2028 12.5844 27.8215 12.6206 27.4089C12.6568 26.9962 12.5277 26.5861 12.2616 26.2687C11.9953 25.9515 11.6139 25.753 11.2013 25.7169C10.7886 25.6808 10.3786 25.81 10.0612 26.0762L7.18649 28.486C6.86929 28.7523 6.67083 29.1337 6.63473 29.5463C6.59864 29.9589 6.72787 30.369 6.99401 30.6864C7.26025 31.0035 7.64147 31.2019 8.05394 31.2381C8.46641 31.2743 8.87638 31.1453 9.1938 30.8795L12.0685 28.4691ZM17.8842 32.9693C17.6179 32.6521 17.2365 32.4536 16.8238 32.4175C16.4112 32.3814 16.0012 32.5106 15.6838 32.7768L13.2884 34.7847C12.9822 35.0542 12.7935 35.4328 12.7627 35.8395C12.7318 36.2463 12.8613 36.649 13.1234 36.9615C13.3856 37.2741 13.7595 37.4717 14.1654 37.5122C14.5713 37.5527 14.977 37.4328 15.2957 37.1782L17.6911 35.1703C18.0086 34.904 18.2073 34.5225 18.2435 34.1098C18.2797 33.697 18.1505 33.2867 17.8842 32.9693ZM22.7425 38.2737L20.8983 39.8192C21.1749 39.9659 21.4894 40.0254 21.8005 39.9901C22.1116 39.9547 22.4047 39.826 22.6414 39.621C22.878 39.4159 23.0471 39.1441 23.1263 38.8412C23.2056 38.5383 23.1914 38.2185 23.0856 37.9238C22.9816 38.0502 22.8668 38.1673 22.7425 38.2737Z" fill="white"/>
<path d="M2.50089 12.8695L0.108734 26.4084C0.048682 26.7483 0.275527 27.0725 0.615406 27.1325L2.46163 27.4587C2.80151 27.5188 3.12572 27.2919 3.18577 26.9521L5.57792 13.4131C5.63797 13.0732 5.41113 12.749 5.07125 12.689L3.22503 12.3628C2.88515 12.3027 2.56094 12.5296 2.50089 12.8695Z" fill="white"/>
<path d="M32.8446 28.2622L26.6689 24.1745C25.4245 24.4358 24.1319 24.3469 22.9349 23.9176C21.4232 23.3806 20.1654 22.3001 19.4065 20.8867L17.4024 21.2941L16.6187 22.4815C16.1607 23.1718 15.4475 23.6522 14.6358 23.8174C13.824 23.9825 12.9799 23.819 12.2885 23.3627C11.7362 22.9962 11.3518 22.4256 11.2196 21.7761C11.0874 21.1266 11.2183 20.4511 11.5836 19.898L13.7933 16.5608C14.1301 16.0503 14.6098 15.6504 15.1726 15.4109L18.4985 13.993C17.5429 13.5904 16.4944 13.4606 15.4694 13.618L8.41387 14.6966L6.66904 14.3892L4.47238 26.8311L4.98858 26.9217C5.20259 27.3972 5.46167 27.8511 5.76225 28.2772C5.92319 27.993 6.13258 27.7392 6.38094 27.5272L9.25566 25.1162C9.72873 24.7162 10.321 24.4842 10.9399 24.4565C11.5588 24.4287 12.1695 24.6068 12.6764 24.9629C13.1834 25.319 13.5581 25.833 13.742 26.4246C13.9258 27.0162 13.9085 27.6521 13.6927 28.2328C14.4158 28.3068 15.0815 28.6599 15.5483 29.217C16.0151 29.7742 16.2462 30.4914 16.1925 31.2163C16.5753 31.145 16.9688 31.1548 17.3477 31.245C17.7265 31.3352 18.0822 31.5038 18.3919 31.7399C18.7015 31.976 18.9583 32.2744 19.1455 32.6159C19.3328 32.9573 19.4464 33.3342 19.479 33.7223C19.9284 33.444 20.4475 33.299 20.976 33.3039C21.5046 33.3089 22.0209 33.4636 22.465 33.7502C22.9091 34.0368 23.2628 34.4435 23.485 34.9231C23.7072 35.4026 23.7889 35.9354 23.7205 36.4595L24.2117 36.7838C24.5572 37.0083 24.9774 37.0873 25.3808 37.0034C25.7842 36.9196 26.1382 36.6798 26.3657 36.3362C26.5931 35.9926 26.6756 35.5731 26.5953 35.169C26.5149 34.7649 26.2781 34.4089 25.9365 34.1785L22.0275 31.5912C21.9544 31.5483 21.8907 31.4909 21.8404 31.4226C21.7901 31.3542 21.7543 31.2764 21.7351 31.1937C21.7158 31.1111 21.7137 31.0254 21.7286 30.9419C21.7436 30.8584 21.7754 30.7788 21.8221 30.708C21.8689 30.6372 21.9295 30.5766 22.0004 30.53C22.0713 30.4834 22.151 30.4517 22.2345 30.4369C22.318 30.4221 22.4037 30.4244 22.4863 30.4437C22.5689 30.4631 22.6467 30.4991 22.715 30.5494L27.6657 33.826C27.8368 33.9414 28.0289 34.0217 28.2312 34.0624C28.4334 34.1031 28.6417 34.1033 28.8441 34.0631C29.0464 34.0228 29.2388 33.9429 29.4101 33.8279C29.5813 33.7129 29.7282 33.5652 29.842 33.3932C29.9559 33.2211 30.0346 33.0283 30.0736 32.8257C30.1125 32.6231 30.111 32.4148 30.069 32.2128C30.027 32.0108 29.9454 31.8192 29.829 31.6489C29.7126 31.4786 29.5635 31.333 29.3906 31.2206L24.4392 27.9435C24.3667 27.9002 24.3038 27.8426 24.2542 27.7743C24.2046 27.7061 24.1694 27.6285 24.1506 27.5462C24.1318 27.4639 24.1299 27.3787 24.145 27.2956C24.16 27.2126 24.1917 27.1335 24.2382 27.063C24.2846 26.9926 24.3449 26.9323 24.4153 26.8857C24.4857 26.8392 24.5648 26.8074 24.6478 26.7923C24.7308 26.7771 24.816 26.779 24.8983 26.7977C24.9806 26.8164 25.0583 26.8515 25.1266 26.9011L31.1191 30.8682C31.4647 31.0969 31.887 31.179 32.2931 31.0963C32.6992 31.0137 33.0558 30.7732 33.2845 30.4276C33.5133 30.082 33.5954 29.6597 33.5127 29.2536C33.4301 28.8475 33.1895 28.4909 32.844 28.2622H32.8446Z" fill="white"/>
<path d="M36.9752 12.3485L35.129 12.6747C34.7891 12.7348 34.5623 13.059 34.6223 13.3989L37.0145 26.9378C37.0745 27.2777 37.3987 27.5045 37.7386 27.4445L39.5848 27.1183C39.9247 27.0582 40.1516 26.734 40.0915 26.3941L37.6993 12.8552C37.6393 12.5153 37.3151 12.2885 36.9752 12.3485Z" fill="white"/>
<path d="M31.7772 14.6936L24.7204 13.6149C23.6859 13.4569 22.6277 13.5907 21.6651 14.0011L15.6632 16.5609C15.3261 16.7045 15.0383 16.9434 14.8351 17.2483L12.6278 20.5849C12.5372 20.7217 12.4744 20.8751 12.4431 21.0363C12.4118 21.1974 12.4125 21.3632 12.4452 21.524C12.478 21.6849 12.5421 21.8377 12.6339 21.9738C12.7257 22.1099 12.8434 22.2266 12.9803 22.3172C13.3949 22.5915 13.9015 22.6899 14.3887 22.5908C14.8759 22.4917 15.3037 22.2031 15.5782 21.7885L16.6481 20.1724L19.6328 19.565C19.7691 19.5355 19.9115 19.5533 20.0364 19.6154C20.1613 19.6775 20.2614 19.7803 20.3202 19.9068C20.604 20.5635 21.0205 21.1543 21.5436 21.6423C22.0667 22.1302 22.6851 22.5047 23.3599 22.7421C24.499 23.1505 25.7395 23.1805 26.8971 22.8278C27.3996 22.674 27.8781 22.4501 28.3182 22.1628V22.1591L28.845 21.821C28.9138 21.7763 28.9908 21.7455 29.0714 21.7305C29.1521 21.7156 29.235 21.7166 29.3153 21.7336C29.3956 21.7507 29.4717 21.7833 29.5394 21.8298C29.607 21.8763 29.6649 21.9356 29.7096 22.0044C29.7543 22.0732 29.7851 22.1502 29.8 22.2309C29.815 22.3116 29.814 22.3944 29.7969 22.4747C29.7799 22.555 29.7472 22.6311 29.7008 22.6988C29.6543 22.7664 29.595 22.8243 29.5262 22.869L29.0019 23.2096C28.7361 23.3821 28.4588 23.5362 28.1719 23.6708L33.5345 27.2205C33.9216 27.4802 34.2369 27.8334 34.4513 28.2472C34.7419 27.8307 34.993 27.388 35.2012 26.9249L35.7193 26.8311L33.5227 14.3861L31.7772 14.6936ZM16.32 12.3007C17.2464 12.2996 18.1634 12.4867 19.0153 12.8506L20.0958 13.3112L21.1764 12.8506C22.0283 12.4867 22.9453 12.2996 23.8717 12.3007C24.2194 12.3009 24.5666 12.3273 24.9104 12.3794L30.0949 13.1718V9.03662C29.4095 9.65585 28.5188 9.99878 27.5951 9.99903V10.624C27.5951 10.7897 27.5293 10.9487 27.4121 11.0659C27.2949 11.1831 27.1359 11.2489 26.9702 11.2489H24.4704C24.3047 11.2489 24.1457 11.1831 24.0285 11.0659C23.9113 10.9487 23.8455 10.7897 23.8455 10.624V9.99903H16.3462V10.624C16.3462 10.7897 16.2804 10.9487 16.1632 11.0659C16.046 11.1831 15.887 11.2489 15.7213 11.2489H13.2215C13.0558 11.2489 12.8968 11.1831 12.7796 11.0659C12.6624 10.9487 12.5966 10.7897 12.5966 10.624V9.99903C11.6729 9.99878 10.7822 9.65585 10.0968 9.03662V13.1718L15.2838 12.38C15.6267 12.3275 15.9731 12.301 16.32 12.3007Z" fill="white"/>
</svg>
