<svg width="316" height="42" viewBox="0 0 316 42" fill="none" xmlns="http://www.w3.org/2000/svg">
<path d="M54.388 29.3484C53.764 29.1724 53.252 28.7884 52.852 28.1964C52.452 27.6044 52.172 26.9804 52.012 26.3244C51.98 26.1804 52.012 25.9404 52.108 25.6044C52.22 25.2684 52.372 24.9164 52.564 24.5484C52.772 24.1804 53.004 23.8844 53.26 23.6604C53.356 23.9004 53.484 24.1164 53.644 24.3084C53.804 24.5004 53.98 24.6204 54.172 24.6684C54.364 24.7164 54.54 24.6444 54.7 24.4524C54.828 24.2764 54.916 23.9084 54.964 23.3484C55.028 22.7884 55.052 22.1004 55.036 21.2844C55.036 20.4524 55.012 19.5644 54.964 18.6204C54.916 17.6764 54.86 16.7404 54.796 15.8124C54.732 14.8684 54.66 14.0044 54.58 13.2204C54.516 12.4204 54.452 11.7644 54.388 11.2524C54.34 10.7244 54.308 10.4044 54.292 10.2924C54.532 10.2444 54.9 10.2364 55.396 10.2684C55.908 10.2844 56.444 10.3644 57.004 10.5084C57.564 10.6364 58.052 10.8604 58.468 11.1804C58.884 11.4844 59.124 11.9084 59.188 12.4524C59.22 12.7564 59.244 13.2684 59.26 13.9884C59.292 14.7084 59.316 15.5484 59.332 16.5084C59.348 17.4524 59.356 18.4444 59.356 19.4844C59.372 20.5084 59.372 21.4924 59.356 22.4364C59.356 23.3804 59.348 24.2044 59.332 24.9084C59.316 25.6124 59.292 26.1004 59.26 26.3724C59.196 27.0604 58.924 27.6764 58.444 28.2204C57.98 28.7484 57.388 29.1244 56.668 29.3484C55.964 29.5724 55.204 29.5724 54.388 29.3484Z" fill="white"/>
<path d="M69.7652 15.4524C70.8692 15.5964 71.6693 15.9164 72.1653 16.4124C72.6772 16.9084 72.9653 17.4924 73.0293 18.1644C73.1093 18.8364 73.0373 19.5244 72.8133 20.2284C72.6853 20.6284 72.4933 21.1404 72.2373 21.7644C71.9973 22.3724 71.7412 22.9964 71.4692 23.6364C71.2132 24.2764 70.9733 24.8524 70.7493 25.3644C70.5252 25.8604 70.3733 26.2124 70.2933 26.4204C70.0373 27.0124 69.7332 27.6444 69.3813 28.3164C69.0293 28.9724 68.6372 29.5884 68.2052 30.1644C67.7892 30.7404 67.3493 31.2124 66.8853 31.5804C66.4373 31.9484 65.9973 32.1324 65.5653 32.1324C64.9893 32.1324 64.5173 31.9884 64.1493 31.7004C63.7972 31.4124 63.5333 31.0524 63.3573 30.6204C63.1813 30.2044 63.0693 29.7964 63.0212 29.3964C63.4373 29.5084 63.8212 29.5004 64.1733 29.3724C64.5253 29.2604 64.8293 29.0924 65.0852 28.8684C65.3252 28.6444 65.4692 28.3884 65.5173 28.1004C65.5813 27.8124 65.5972 27.5564 65.5653 27.3324C65.4853 26.4364 65.2373 25.4684 64.8212 24.4284L61.2933 15.6924C61.5332 15.6604 61.8453 15.6204 62.2292 15.5724C62.6292 15.5084 63.0452 15.5004 63.4773 15.5484C63.9253 15.5804 64.3413 15.7004 64.7253 15.9084C65.1252 16.1004 65.4533 16.4284 65.7093 16.8924C65.8053 17.0524 65.9172 17.3004 66.0452 17.6364C66.1892 17.9564 66.3333 18.3004 66.4773 18.6684C66.6372 19.0204 66.7652 19.3244 66.8612 19.5804C67.0373 19.9644 67.2213 20.2764 67.4132 20.5164C67.6213 20.7404 67.8293 20.8604 68.0373 20.8764C68.2133 20.8924 68.3892 20.8284 68.5653 20.6844C68.7412 20.5244 68.8853 20.3244 68.9973 20.0844C69.0933 19.8604 69.2052 19.5244 69.3333 19.0764C69.4613 18.6284 69.5653 18.2524 69.6453 17.9484C69.7892 17.3884 69.8612 16.9084 69.8612 16.5084C69.8773 16.1084 69.8452 15.7564 69.7652 15.4524Z" fill="white"/>
<path d="M88.3002 21.9084C88.4442 23.2524 88.3402 24.4044 87.9882 25.3644C87.6362 26.3244 87.1162 27.1164 86.4282 27.7404C85.7562 28.3644 84.9962 28.8284 84.1482 29.1324C83.3162 29.4204 82.4842 29.5644 81.6522 29.5644C80.8362 29.5644 80.0042 29.4204 79.1562 29.1324C78.3242 28.8284 77.5722 28.3644 76.9002 27.7404C76.2442 27.1164 75.7322 26.3244 75.3642 25.3644C75.0122 24.4044 74.9082 23.2524 75.0522 21.9084C75.1962 20.6764 75.5642 19.5964 76.1562 18.6684C76.7642 17.7404 77.5322 17.0124 78.4602 16.4844C79.4042 15.9404 80.4362 15.6364 81.5562 15.5724C81.6202 15.5564 81.6842 15.5084 81.7482 15.4284C81.8282 15.3324 81.9562 15.2524 82.1322 15.1884C82.3242 15.1084 82.6122 15.0844 82.9962 15.1164C83.9082 15.3724 84.7402 15.8124 85.4922 16.4364C86.2442 17.0604 86.8682 17.8364 87.3642 18.7644C87.8762 19.6924 88.1882 20.7404 88.3002 21.9084ZM81.4362 25.7244C81.9482 25.7244 82.3882 25.6044 82.7562 25.3644C83.1242 25.1244 83.4202 24.8204 83.6442 24.4524C83.8682 24.0684 84.0282 23.6684 84.1242 23.2524C84.2362 22.8364 84.2922 22.4604 84.2922 22.1244C84.2922 21.4364 84.1802 20.9004 83.9562 20.5164C83.7322 20.1324 83.2202 19.7884 82.4202 19.4844C82.1962 19.3884 82.0442 19.2604 81.9642 19.1004C81.8842 18.9404 81.7642 18.8524 81.6042 18.8364C81.0762 18.7724 80.6282 18.9164 80.2602 19.2684C79.8922 19.6204 79.6122 20.0924 79.4202 20.6844C79.2282 21.2764 79.1322 21.9164 79.1322 22.6044C79.1322 23.2924 79.2602 23.8684 79.5162 24.3324C79.7882 24.7964 80.1002 25.1484 80.4522 25.3884C80.8202 25.6124 81.1482 25.7244 81.4362 25.7244Z" fill="white"/>
<path d="M100.462 15.9084C100.622 16.0684 100.742 16.3644 100.822 16.7964C100.918 17.2124 100.942 17.6764 100.894 18.1884C100.862 18.6844 100.742 19.1404 100.534 19.5564C100.342 19.9564 100.046 20.2284 99.646 20.3724C99.022 20.5964 98.566 20.9964 98.278 21.5724C97.99 22.1484 97.822 22.8764 97.774 23.7564V25.7964C97.806 26.0524 97.91 26.2604 98.086 26.4204C98.278 26.5804 98.462 26.6924 98.638 26.7564C98.83 26.8204 98.926 26.8524 98.926 26.8524C98.926 26.8524 98.894 26.9644 98.83 27.1884C98.782 27.4124 98.686 27.6764 98.542 27.9804C98.398 28.2844 98.19 28.5804 97.918 28.8684C97.646 29.1404 97.294 29.3324 96.862 29.4444C96.638 29.4924 96.334 29.5004 95.95 29.4684C95.582 29.4524 95.206 29.3804 94.822 29.2524C94.438 29.1244 94.118 28.9484 93.862 28.7244C93.718 28.5964 93.598 28.4604 93.502 28.3164C93.406 28.1724 93.334 27.9564 93.286 27.6684C93.254 27.3804 93.238 26.9724 93.238 26.4444V23.8764C93.222 22.9484 93.022 22.1804 92.638 21.5724C92.254 20.9484 91.75 20.4124 91.126 19.9644C90.838 19.7564 90.63 19.4204 90.502 18.9564C90.39 18.4764 90.318 17.9724 90.286 17.4444C90.254 16.9164 90.246 16.4684 90.262 16.1004C90.342 16.1164 90.558 16.1484 90.91 16.1964C91.262 16.2444 91.566 16.2684 91.822 16.2684C92.334 16.2524 92.686 16.0524 92.878 15.6684C93.07 15.2844 93.166 14.8044 93.166 14.2284L93.142 12.0924C93.286 12.0764 93.526 12.0604 93.862 12.0444C94.214 12.0124 94.598 12.0124 95.014 12.0444C95.43 12.0764 95.83 12.1564 96.214 12.2844C96.614 12.3964 96.95 12.5804 97.222 12.8364C97.51 13.0924 97.678 13.4364 97.726 13.8684C97.726 13.9164 97.726 13.9804 97.726 14.0604C97.742 14.1244 97.75 14.2044 97.75 14.3004H97.774C97.774 14.5084 97.798 14.7564 97.846 15.0444C97.91 15.3324 97.998 15.5724 98.11 15.7644C98.222 15.9244 98.398 16.0444 98.638 16.1244C98.878 16.1884 99.11 16.2284 99.334 16.2444C99.574 16.2444 99.75 16.2284 99.862 16.1964C100.038 16.1484 100.166 16.1084 100.246 16.0764C100.326 16.0284 100.398 15.9724 100.462 15.9084Z" fill="white"/>
<path d="M105.536 14.9484C104.992 14.9644 104.504 14.8124 104.072 14.4924C103.656 14.1724 103.336 13.7804 103.112 13.3164C102.904 12.8364 102.824 12.3804 102.872 11.9484C102.952 11.2924 103.248 10.8284 103.76 10.5564C104.272 10.2844 104.808 10.1404 105.368 10.1244C106.168 10.0924 106.792 10.3004 107.24 10.7484C107.688 11.1964 107.912 11.7084 107.912 12.2844C107.912 12.6684 107.824 13.0604 107.648 13.4604C107.488 13.8604 107.232 14.2044 106.88 14.4924C106.528 14.7644 106.08 14.9164 105.536 14.9484ZM108.08 26.8044C108.096 27.0924 108.184 27.3404 108.344 27.5484C108.52 27.7404 108.728 27.9244 108.968 28.1004C108.856 28.2444 108.712 28.3964 108.536 28.5564C108.36 28.7164 108.096 28.8684 107.744 29.0124C107.408 29.1404 106.92 29.2444 106.28 29.3244C106.072 29.3404 105.808 29.3164 105.488 29.2524C105.168 29.2044 104.848 29.0524 104.528 28.7964C104.224 28.5244 103.976 28.1004 103.784 27.5244C103.592 26.9324 103.512 26.1244 103.544 25.1004C103.56 24.9244 103.56 24.5804 103.544 24.0684C103.544 23.5564 103.536 22.9484 103.52 22.2444C103.52 21.5404 103.512 20.8124 103.496 20.0604C103.496 19.3084 103.488 18.6124 103.472 17.9724C103.472 17.3164 103.464 16.7884 103.448 16.3884C103.448 15.9724 103.448 15.7644 103.448 15.7644C103.592 15.7484 103.832 15.7324 104.168 15.7164C104.52 15.6844 104.904 15.6844 105.32 15.7164C105.736 15.7484 106.136 15.8284 106.52 15.9564C106.92 16.0684 107.256 16.2524 107.528 16.5084C107.816 16.7644 107.984 17.1084 108.032 17.5404C108.112 18.1484 108.144 18.9644 108.128 19.9884C108.112 20.9964 108.088 22.1004 108.056 23.3004C108.024 24.4844 108.032 25.6524 108.08 26.8044Z" fill="white"/>
<path d="M117.151 15.2844C118.335 15.2844 119.343 15.4524 120.175 15.7884C121.023 16.1244 121.671 16.5404 122.119 17.0364C122.567 17.5324 122.783 18.0204 122.767 18.5004C122.767 18.7564 122.655 19.0444 122.431 19.3644C122.207 19.6844 121.911 19.9564 121.543 20.1804C121.191 20.3884 120.799 20.4684 120.367 20.4204C120.479 20.1324 120.407 19.8604 120.151 19.6044C119.895 19.3484 119.527 19.1404 119.047 18.9804C118.567 18.8044 118.047 18.7084 117.487 18.6924C116.847 18.6604 116.415 18.7324 116.191 18.9084C115.967 19.0684 115.839 19.2444 115.807 19.4364C115.759 19.6444 115.855 19.8284 116.095 19.9884C116.335 20.1324 116.647 20.2684 117.031 20.3964C117.431 20.5084 117.847 20.6124 118.279 20.7084C118.727 20.7884 119.135 20.8604 119.503 20.9244C119.887 20.9884 120.183 21.0524 120.391 21.1164C121.351 21.4044 122.055 21.7804 122.503 22.2444C122.951 22.6924 123.239 23.1724 123.367 23.6844C123.511 24.1964 123.567 24.7004 123.535 25.1964C123.503 25.9964 123.295 26.6684 122.911 27.2124C122.543 27.7404 122.079 28.1644 121.519 28.4844C120.975 28.8044 120.399 29.0444 119.791 29.2044C119.199 29.3484 118.639 29.4444 118.111 29.4924C117.599 29.5404 117.207 29.5644 116.935 29.5644C116.103 29.5484 115.319 29.4604 114.583 29.3004C113.863 29.1564 113.239 28.9644 112.711 28.7244C112.199 28.4844 111.831 28.2284 111.607 27.9564C111.447 27.7644 111.295 27.4924 111.151 27.1404C111.007 26.7884 110.919 26.4124 110.887 26.0124C110.871 25.5964 110.959 25.2044 111.151 24.8364C111.343 24.4524 111.695 24.1404 112.207 23.9004C112.303 24.2204 112.559 24.5084 112.975 24.7644C113.407 25.0204 113.919 25.2284 114.511 25.3884C115.119 25.5484 115.719 25.6604 116.311 25.7244C116.887 25.7724 117.431 25.7644 117.943 25.7004C118.455 25.6364 118.735 25.4524 118.783 25.1484C118.815 24.9884 118.735 24.8284 118.543 24.6684C118.351 24.5084 117.999 24.3724 117.487 24.2604C116.943 24.1324 116.463 24.0364 116.047 23.9724C115.647 23.8924 115.247 23.8044 114.847 23.7084C114.095 23.5164 113.439 23.2124 112.879 22.7964C112.319 22.3804 111.895 21.8844 111.607 21.3084C111.335 20.7164 111.239 20.0924 111.319 19.4364C111.447 18.4924 111.791 17.7164 112.351 17.1084C112.927 16.5004 113.639 16.0444 114.487 15.7404C115.335 15.4364 116.223 15.2844 117.151 15.2844Z" fill="white"/>
<path d="M138.449 26.1804C138.465 26.4684 138.513 26.7724 138.593 27.0924C138.689 27.3964 138.913 27.6204 139.265 27.7644C139.057 28.0364 138.689 28.3404 138.161 28.6764C137.633 28.9964 137.065 29.2044 136.457 29.3004C135.897 29.3804 135.425 29.3164 135.041 29.1084C134.673 28.8844 134.393 28.5644 134.201 28.1484C134.025 27.7324 133.929 27.2844 133.913 26.8044C133.913 26.6764 133.921 26.4124 133.937 26.0124C133.953 25.5964 133.961 25.1244 133.961 24.5964C133.961 24.0684 133.953 23.5644 133.937 23.0844C133.937 22.6044 133.913 22.2284 133.865 21.9564C133.769 21.4284 133.577 21.1324 133.289 21.0684C133.017 20.9884 132.705 21.0524 132.353 21.2604C131.793 21.5804 131.329 22.1484 130.961 22.9644C130.609 23.7644 130.425 24.7884 130.409 26.0364C130.393 26.5324 130.457 26.8924 130.601 27.1164C130.745 27.3244 130.817 27.4284 130.817 27.4284C130.817 27.4284 130.737 27.5644 130.577 27.8364C130.417 28.1084 130.129 28.4044 129.713 28.7244C129.297 29.0284 128.689 29.2444 127.889 29.3724C127.441 29.4364 127.073 29.3564 126.785 29.1324C126.497 28.8924 126.289 28.5564 126.161 28.1244C126.033 27.6924 125.961 27.2364 125.945 26.7564L125.873 12.8124C125.857 12.1564 125.785 11.5804 125.657 11.0844C125.529 10.5724 125.465 10.3164 125.465 10.3164C125.865 10.2684 126.329 10.2524 126.857 10.2684C127.401 10.2844 127.929 10.3644 128.441 10.5084C128.969 10.6364 129.417 10.8604 129.785 11.1804C130.153 11.5004 130.369 11.9324 130.433 12.4764C130.449 12.5884 130.465 12.8044 130.481 13.1244C130.513 13.4284 130.529 13.7404 130.529 14.0604C130.513 14.5084 130.577 14.8844 130.721 15.1884C130.865 15.4924 131.057 15.7244 131.297 15.8844C131.569 16.0444 131.913 16.1004 132.329 16.0524C132.745 15.9884 133.113 15.9004 133.433 15.7884C133.753 15.6604 134.017 15.5644 134.225 15.5004C134.449 15.4364 134.681 15.3884 134.921 15.3564C135.193 15.3244 135.513 15.3404 135.881 15.4044C136.249 15.4524 136.609 15.5724 136.961 15.7644C137.329 15.9564 137.641 16.2284 137.897 16.5804C138.169 16.9324 138.337 17.3804 138.401 17.9244C138.513 18.8524 138.537 19.9884 138.473 21.3324C138.425 22.6604 138.417 24.2764 138.449 26.1804Z" fill="white"/>
<path d="M167.481 18.3084C167.657 18.4844 167.785 18.7484 167.865 19.1004C167.961 19.4364 167.977 19.8124 167.913 20.2284C167.865 20.5804 167.745 20.9404 167.553 21.3084C167.361 21.6764 167.073 21.9964 166.689 22.2684C166.385 22.4764 166.161 22.8204 166.017 23.3004C165.873 23.7644 165.777 24.2364 165.729 24.7164C165.665 25.2604 165.521 25.8204 165.297 26.3964C165.089 26.9724 164.761 27.4844 164.313 27.9324C163.961 28.3484 163.449 28.7324 162.777 29.0844C162.121 29.4204 161.225 29.5804 160.089 29.5644C159.449 29.5484 158.697 29.4364 157.833 29.2284C156.985 29.0204 156.121 28.6844 155.241 28.2204C154.377 27.7404 153.585 27.1004 152.865 26.3004C152.145 25.5004 151.593 24.5084 151.209 23.3244C150.825 22.1404 150.713 20.7324 150.873 19.1004C151.017 17.5484 151.401 16.2044 152.025 15.0684C152.665 13.9324 153.457 12.9964 154.401 12.2604C155.345 11.5244 156.361 10.9724 157.449 10.6044C158.537 10.2204 159.617 10.0204 160.689 10.0044C161.633 9.97236 162.457 10.1164 163.161 10.4364C163.865 10.7564 164.425 11.1724 164.841 11.6844C165.273 12.1804 165.561 12.7164 165.705 13.2924C165.865 13.8524 165.865 14.3644 165.705 14.8284C165.577 15.2284 165.393 15.5564 165.153 15.8124C164.929 16.0684 164.681 16.2444 164.409 16.3404C164.073 16.4684 163.729 16.4924 163.377 16.4124C163.025 16.3164 162.721 16.1164 162.465 15.8124C162.737 15.6044 162.817 15.3804 162.705 15.1404C162.609 14.8844 162.361 14.6764 161.961 14.5164C161.561 14.3404 161.049 14.2764 160.425 14.3244C159.945 14.3564 159.433 14.4924 158.889 14.7324C158.361 14.9724 157.857 15.3084 157.377 15.7404C156.913 16.1724 156.529 16.7004 156.225 17.3244C155.921 17.9484 155.753 18.6604 155.721 19.4604C155.673 20.5644 155.769 21.4604 156.009 22.1484C156.265 22.8364 156.601 23.3564 157.017 23.7084C157.433 24.0604 157.881 24.3004 158.361 24.4284C158.841 24.5564 159.305 24.6204 159.753 24.6204C160.137 24.6204 160.449 24.5004 160.689 24.2604C160.945 24.0204 161.049 23.7324 161.001 23.3964C160.953 23.0604 160.665 22.7404 160.137 22.4364C159.641 22.1644 159.321 21.9004 159.177 21.6444C159.033 21.3884 158.913 21.1324 158.817 20.8764C158.657 20.4604 158.521 20.0124 158.409 19.5324C158.297 19.0524 158.249 18.6444 158.265 18.3084C158.393 18.3564 158.721 18.4364 159.249 18.5484C159.777 18.6444 160.385 18.7324 161.073 18.8124C161.777 18.8924 162.441 18.9404 163.065 18.9564C163.721 18.9564 164.353 18.9404 164.961 18.9084C165.569 18.8604 166.097 18.7884 166.545 18.6924C167.009 18.5964 167.321 18.4684 167.481 18.3084Z" fill="white"/>
<path d="M178.328 15.4524C179.432 15.5964 180.232 15.9164 180.728 16.4124C181.24 16.9084 181.528 17.4924 181.592 18.1644C181.672 18.8364 181.6 19.5244 181.376 20.2284C181.248 20.6284 181.056 21.1404 180.8 21.7644C180.56 22.3724 180.304 22.9964 180.032 23.6364C179.776 24.2764 179.536 24.8524 179.312 25.3644C179.088 25.8604 178.936 26.2124 178.856 26.4204C178.6 27.0124 178.296 27.6444 177.944 28.3164C177.592 28.9724 177.2 29.5884 176.768 30.1644C176.352 30.7404 175.912 31.2124 175.448 31.5804C175 31.9484 174.56 32.1324 174.128 32.1324C173.552 32.1324 173.08 31.9884 172.712 31.7004C172.36 31.4124 172.096 31.0524 171.92 30.6204C171.744 30.2044 171.632 29.7964 171.584 29.3964C172 29.5084 172.384 29.5004 172.736 29.3724C173.088 29.2604 173.392 29.0924 173.648 28.8684C173.888 28.6444 174.032 28.3884 174.08 28.1004C174.144 27.8124 174.16 27.5564 174.128 27.3324C174.048 26.4364 173.8 25.4684 173.384 24.4284L169.856 15.6924C170.096 15.6604 170.408 15.6204 170.792 15.5724C171.192 15.5084 171.608 15.5004 172.04 15.5484C172.488 15.5804 172.904 15.7004 173.288 15.9084C173.688 16.1004 174.016 16.4284 174.272 16.8924C174.368 17.0524 174.48 17.3004 174.608 17.6364C174.752 17.9564 174.896 18.3004 175.04 18.6684C175.2 19.0204 175.328 19.3244 175.424 19.5804C175.6 19.9644 175.784 20.2764 175.976 20.5164C176.184 20.7404 176.392 20.8604 176.6 20.8764C176.776 20.8924 176.952 20.8284 177.128 20.6844C177.304 20.5244 177.448 20.3244 177.56 20.0844C177.656 19.8604 177.768 19.5244 177.896 19.0764C178.024 18.6284 178.128 18.2524 178.208 17.9484C178.352 17.3884 178.424 16.9084 178.424 16.5084C178.44 16.1084 178.408 15.7564 178.328 15.4524Z" fill="white"/>
<path d="M196.815 24.8844C196.831 25.2364 196.855 25.6684 196.887 26.1804C196.935 26.6924 197.039 27.1884 197.199 27.6684C197.359 28.1484 197.615 28.5324 197.967 28.8204C197.567 29.0924 197.159 29.2844 196.743 29.3964C196.327 29.5244 195.919 29.5564 195.519 29.4924C195.407 29.4604 195.287 29.4204 195.159 29.3724C195.031 29.3404 194.855 29.2924 194.631 29.2284C194.263 29.1164 193.831 29.0924 193.335 29.1564C192.839 29.2204 192.319 29.3004 191.775 29.3964C191.247 29.5084 190.727 29.5644 190.215 29.5644C189.383 29.5644 188.551 29.4204 187.719 29.1324C186.887 28.8284 186.135 28.3644 185.463 27.7404C184.791 27.1164 184.279 26.3244 183.927 25.3644C183.575 24.4044 183.471 23.2524 183.615 21.9084C183.711 20.9804 183.975 20.1324 184.407 19.3644C184.839 18.5804 185.367 17.9084 185.991 17.3484C186.631 16.7724 187.303 16.3324 188.007 16.0284C188.727 15.7084 189.423 15.5564 190.095 15.5724C190.607 15.5884 190.999 15.6044 191.271 15.6204C191.559 15.6364 191.927 15.6764 192.375 15.7404C192.647 15.7724 192.991 15.7324 193.407 15.6204C193.823 15.5084 194.239 15.3884 194.655 15.2604C195.087 15.1164 195.455 15.0444 195.759 15.0444C196.223 15.0284 196.551 15.0444 196.743 15.0924C196.935 15.1244 197.095 15.1564 197.223 15.1884C197.127 15.4764 197.047 15.9084 196.983 16.4844C196.919 17.0604 196.871 17.7164 196.839 18.4524C196.823 19.1724 196.807 19.9244 196.791 20.7084C196.775 21.4924 196.767 22.2444 196.767 22.9644C196.783 23.6844 196.799 24.3244 196.815 24.8844ZM187.791 22.6764C187.823 23.4764 187.967 24.1004 188.223 24.5484C188.495 24.9804 188.815 25.2844 189.183 25.4604C189.567 25.6364 189.935 25.7244 190.287 25.7244C190.991 25.7404 191.511 25.4684 191.847 24.9084C192.183 24.3484 192.343 23.5724 192.327 22.5804C192.327 22.3084 192.295 21.9884 192.231 21.6204C192.183 21.2524 192.087 20.8924 191.943 20.5404C191.815 20.1884 191.631 19.8924 191.391 19.6524C191.167 19.4124 190.871 19.2924 190.503 19.2924C189.767 19.2924 189.119 19.5644 188.559 20.1084C188.015 20.6524 187.759 21.5084 187.791 22.6764Z" fill="white"/>
<path d="M212.959 26.1804C212.975 26.8844 213.079 27.3804 213.271 27.6684C213.479 27.9404 213.583 28.0764 213.583 28.0764C213.583 28.0764 213.439 28.1804 213.151 28.3884C212.879 28.5804 212.511 28.7804 212.047 28.9884C211.583 29.1964 211.063 29.3004 210.487 29.3004C209.639 29.3004 209.087 29.0684 208.831 28.6044C208.575 28.1404 208.439 27.5404 208.423 26.8044C208.423 26.6764 208.431 26.3964 208.447 25.9644C208.463 25.5324 208.471 25.0444 208.471 24.5004C208.487 23.9404 208.487 23.4284 208.471 22.9644C208.455 22.4844 208.423 22.1484 208.375 21.9564C208.199 21.3164 207.855 21.0364 207.343 21.1164C206.943 21.1644 206.567 21.3964 206.215 21.8124C205.863 22.2124 205.575 22.6924 205.351 23.2524C205.127 23.8124 205.015 24.3404 205.015 24.8364C205.015 25.0924 204.999 25.3484 204.967 25.6044C204.951 25.8444 204.935 26.0684 204.919 26.2764C204.903 26.4204 204.919 26.5964 204.967 26.8044C205.031 27.0124 205.143 27.1804 205.303 27.3084C205.191 27.5004 204.967 27.7484 204.631 28.0524C204.311 28.3564 203.959 28.6364 203.575 28.8924C203.207 29.1324 202.887 29.2684 202.615 29.3004C202.359 29.3164 202.055 29.2364 201.703 29.0604C201.367 28.8844 201.071 28.6204 200.815 28.2684C200.575 27.9164 200.447 27.4924 200.431 26.9964C200.431 26.8684 200.431 26.5724 200.431 26.1084C200.447 25.6444 200.455 25.0844 200.455 24.4284C200.471 23.7724 200.479 23.0764 200.479 22.3404C200.495 21.6044 200.503 20.8924 200.503 20.2044C200.503 19.5164 200.503 18.9244 200.503 18.4284C200.503 17.9964 200.447 17.5804 200.335 17.1804C200.239 16.7644 200.135 16.4284 200.023 16.1724C199.927 15.9004 199.879 15.7644 199.879 15.7644C200.023 15.7324 200.271 15.7084 200.623 15.6924C200.991 15.6764 201.399 15.6844 201.847 15.7164C202.295 15.7484 202.735 15.8204 203.167 15.9324C203.615 16.0444 203.991 16.2204 204.295 16.4604C204.615 16.7004 204.935 16.8524 205.255 16.9164C205.591 16.9644 205.855 16.9324 206.047 16.8204C206.607 16.4524 207.175 16.1324 207.751 15.8604C208.327 15.5884 208.887 15.4204 209.431 15.3564C209.703 15.3244 210.023 15.3404 210.391 15.4044C210.759 15.4524 211.119 15.5724 211.471 15.7644C211.839 15.9564 212.151 16.2284 212.407 16.5804C212.679 16.9324 212.847 17.3804 212.911 17.9244C213.023 18.8524 213.055 19.9884 213.007 21.3324C212.959 22.6604 212.943 24.2764 212.959 26.1804Z" fill="white"/>
<path d="M238.897 25.1724C239.601 25.8284 240.209 26.2524 240.721 26.4444C240.673 26.6364 240.569 26.8924 240.409 27.2124C240.265 27.5324 240.073 27.8524 239.833 28.1724C239.609 28.4924 239.345 28.7644 239.041 28.9884C238.737 29.2124 238.401 29.3324 238.033 29.3484C237.585 29.3644 237.177 29.3164 236.809 29.2044C236.457 29.0764 236.081 28.8684 235.681 28.5804C235.377 28.3404 235.017 28.0364 234.601 27.6684C234.201 27.2844 233.809 26.8924 233.425 26.4924C233.041 26.0924 232.737 25.7564 232.513 25.4844C232.193 25.0684 231.849 24.7164 231.481 24.4284C231.113 24.1404 230.705 24.0284 230.257 24.0924C230.001 24.1084 229.841 24.1804 229.777 24.3084C229.729 24.4204 229.681 24.6524 229.633 25.0044C229.601 25.2444 229.593 25.5324 229.609 25.8684C229.625 26.1884 229.649 26.4924 229.681 26.7804C229.729 27.0684 229.753 27.2764 229.753 27.4044C229.753 27.6924 229.809 27.9164 229.921 28.0764C230.033 28.2204 230.145 28.3564 230.257 28.4844C229.985 28.6924 229.561 28.9164 228.985 29.1564C228.409 29.3964 227.769 29.5164 227.065 29.5164C226.601 29.5164 226.233 29.3324 225.961 28.9644C225.705 28.5964 225.521 28.1484 225.409 27.6204C225.297 27.0924 225.233 26.5804 225.217 26.0844C225.217 25.9404 225.209 25.5484 225.193 24.9084C225.193 24.2684 225.185 23.4764 225.169 22.5324C225.169 21.5724 225.169 20.5484 225.169 19.4604C225.169 18.3564 225.161 17.2684 225.145 16.1964C225.145 15.1084 225.137 14.1244 225.121 13.2444C225.121 12.3484 225.121 11.6364 225.121 11.1084C225.121 10.5644 225.121 10.2924 225.121 10.2924C225.297 10.2604 225.601 10.2524 226.033 10.2684C226.481 10.2844 226.945 10.3564 227.425 10.4844C227.969 10.6124 228.465 10.8284 228.913 11.1324C229.377 11.4364 229.641 11.8764 229.705 12.4524C229.737 12.8204 229.753 13.1244 229.753 13.3644C229.769 13.6044 229.777 13.8524 229.777 14.1084C229.777 14.9564 229.985 15.4924 230.401 15.7164C230.865 15.9564 231.497 15.7964 232.297 15.2364C232.425 15.1404 232.649 14.9564 232.969 14.6844C233.289 14.3964 233.657 14.0604 234.073 13.6764C234.489 13.2924 234.921 12.8924 235.369 12.4764C235.817 12.0604 236.225 11.6764 236.593 11.3244C236.977 10.9564 237.289 10.6604 237.529 10.4364C237.769 10.2124 237.889 10.1004 237.889 10.1004C238.033 10.2124 238.233 10.4764 238.489 10.8924C238.761 11.3084 239.001 11.7724 239.209 12.2844C239.417 12.7964 239.545 13.3244 239.593 13.8684C239.657 14.3964 239.553 14.8364 239.281 15.1884C239.169 15.3324 238.985 15.5244 238.729 15.7644C238.489 16.0044 238.217 16.2604 237.913 16.5324C237.625 16.7884 237.345 17.0364 237.073 17.2764C236.801 17.5004 236.593 17.6764 236.449 17.8044C236.145 18.0604 235.889 18.3804 235.681 18.7644C235.489 19.1324 235.369 19.5164 235.321 19.9164C235.273 20.3164 235.289 20.7164 235.369 21.1164C235.449 21.5164 235.625 21.8844 235.897 22.2204C236.089 22.4444 236.377 22.7484 236.761 23.1324C237.145 23.5004 237.537 23.8764 237.937 24.2604C238.337 24.6284 238.657 24.9324 238.897 25.1724Z" fill="white"/>
<path d="M254.749 23.2044C255.149 23.4764 255.405 23.8684 255.517 24.3804C255.645 24.8764 255.629 25.4204 255.469 26.0124C255.325 26.6044 255.029 27.1724 254.581 27.7164C254.133 28.2444 253.525 28.6844 252.757 29.0364C252.005 29.3884 251.093 29.5724 250.021 29.5884C249.125 29.6044 248.245 29.4924 247.381 29.2524C246.533 29.0124 245.757 28.6444 245.053 28.1484C244.365 27.6524 243.805 27.0124 243.373 26.2284C242.941 25.4444 242.701 24.5084 242.653 23.4204C242.637 23.1964 242.637 22.9644 242.653 22.7244C242.669 22.4844 242.685 22.2364 242.701 21.9804C242.701 21.9164 242.701 21.8524 242.701 21.7884C242.717 21.7244 242.733 21.6604 242.749 21.5964C242.909 20.6364 243.237 19.7564 243.733 18.9564C244.245 18.1564 244.869 17.4764 245.605 16.9164C246.341 16.3564 247.125 15.9484 247.957 15.6924C248.805 15.4204 249.637 15.3244 250.453 15.4044C251.717 15.5324 252.693 15.8684 253.381 16.4124C254.085 16.9564 254.541 17.6284 254.749 18.4284C254.973 19.2124 254.981 20.0604 254.773 20.9724C254.661 21.4204 254.405 21.8684 254.005 22.3164C253.621 22.7484 253.141 23.1404 252.565 23.4924C251.989 23.8284 251.373 24.0924 250.717 24.2844C250.077 24.4604 249.453 24.5324 248.845 24.5004C248.541 24.4844 248.381 24.5804 248.365 24.7884C248.349 24.9804 248.437 25.1964 248.629 25.4364C248.821 25.6604 249.077 25.8124 249.397 25.8924C250.149 26.0524 250.853 26.0604 251.509 25.9164C252.181 25.7564 252.693 25.5404 253.045 25.2684C253.333 25.0444 253.637 24.7484 253.957 24.3804C254.277 23.9964 254.541 23.6044 254.749 23.2044ZM249.493 20.7804C249.861 20.7484 250.181 20.6364 250.453 20.4444C250.741 20.2364 250.885 20.0204 250.885 19.7964C250.901 19.4764 250.821 19.2204 250.645 19.0284C250.485 18.8204 250.205 18.7244 249.805 18.7404C249.357 18.7564 248.925 18.8204 248.509 18.9324C248.093 19.0444 247.845 19.2764 247.765 19.6284C247.717 19.8684 247.789 20.0764 247.981 20.2524C248.173 20.4284 248.413 20.5644 248.701 20.6604C248.989 20.7404 249.253 20.7804 249.493 20.7804Z" fill="white"/>
<path d="M270.615 26.1804C270.631 26.8844 270.735 27.3804 270.927 27.6684C271.135 27.9404 271.239 28.0764 271.239 28.0764C271.239 28.0764 271.095 28.1804 270.807 28.3884C270.535 28.5804 270.167 28.7804 269.703 28.9884C269.239 29.1964 268.719 29.3004 268.143 29.3004C267.295 29.3004 266.743 29.0684 266.487 28.6044C266.231 28.1404 266.095 27.5404 266.079 26.8044C266.079 26.6764 266.087 26.3964 266.103 25.9644C266.119 25.5324 266.127 25.0444 266.127 24.5004C266.143 23.9404 266.143 23.4284 266.127 22.9644C266.111 22.4844 266.079 22.1484 266.031 21.9564C265.855 21.3164 265.511 21.0364 264.999 21.1164C264.599 21.1644 264.223 21.3964 263.871 21.8124C263.519 22.2124 263.231 22.6924 263.007 23.2524C262.783 23.8124 262.671 24.3404 262.671 24.8364C262.671 25.0924 262.655 25.3484 262.623 25.6044C262.607 25.8444 262.591 26.0684 262.575 26.2764C262.559 26.4204 262.575 26.5964 262.623 26.8044C262.687 27.0124 262.799 27.1804 262.959 27.3084C262.847 27.5004 262.623 27.7484 262.287 28.0524C261.967 28.3564 261.615 28.6364 261.231 28.8924C260.863 29.1324 260.543 29.2684 260.271 29.3004C260.015 29.3164 259.711 29.2364 259.359 29.0604C259.023 28.8844 258.727 28.6204 258.471 28.2684C258.231 27.9164 258.103 27.4924 258.087 26.9964C258.087 26.8684 258.087 26.5724 258.087 26.1084C258.103 25.6444 258.111 25.0844 258.111 24.4284C258.127 23.7724 258.135 23.0764 258.135 22.3404C258.151 21.6044 258.159 20.8924 258.159 20.2044C258.159 19.5164 258.159 18.9244 258.159 18.4284C258.159 17.9964 258.103 17.5804 257.991 17.1804C257.895 16.7644 257.791 16.4284 257.679 16.1724C257.583 15.9004 257.535 15.7644 257.535 15.7644C257.679 15.7324 257.927 15.7084 258.279 15.6924C258.647 15.6764 259.055 15.6844 259.503 15.7164C259.951 15.7484 260.391 15.8204 260.823 15.9324C261.271 16.0444 261.647 16.2204 261.951 16.4604C262.271 16.7004 262.591 16.8524 262.911 16.9164C263.247 16.9644 263.511 16.9324 263.703 16.8204C264.263 16.4524 264.831 16.1324 265.407 15.8604C265.983 15.5884 266.543 15.4204 267.087 15.3564C267.359 15.3244 267.679 15.3404 268.047 15.4044C268.415 15.4524 268.775 15.5724 269.127 15.7644C269.495 15.9564 269.807 16.2284 270.063 16.5804C270.335 16.9324 270.503 17.3804 270.567 17.9244C270.679 18.8524 270.711 19.9884 270.663 21.3324C270.615 22.6604 270.599 24.2764 270.615 26.1804Z" fill="white"/>
<path d="M286.44 26.2524C286.712 26.5724 287.112 26.7964 287.64 26.9244C287.56 27.2604 287.456 27.6204 287.328 28.0044C287.216 28.3884 287.032 28.7244 286.776 29.0124C286.536 29.3004 286.184 29.4844 285.72 29.5644C285.512 29.6124 285.248 29.5964 284.928 29.5164C284.608 29.4364 284.224 29.3404 283.776 29.2284C283.488 29.1484 283.12 29.1324 282.672 29.1804C282.224 29.2124 281.8 29.2604 281.4 29.3244C281.016 29.3884 280.76 29.4364 280.632 29.4684C280.456 29.5164 280.28 29.5404 280.104 29.5404C279.928 29.5564 279.752 29.5644 279.576 29.5644C278.744 29.5644 277.92 29.4204 277.104 29.1324C276.304 28.8284 275.584 28.3644 274.944 27.7404C274.304 27.1164 273.816 26.3244 273.48 25.3644C273.16 24.4044 273.072 23.2524 273.216 21.9084C273.312 20.9804 273.56 20.1164 273.96 19.3164C274.376 18.5164 274.888 17.8204 275.496 17.2284C276.104 16.6204 276.752 16.1564 277.44 15.8364C278.144 15.5004 278.832 15.3324 279.504 15.3324C279.648 15.3324 279.784 15.3324 279.912 15.3324C280.056 15.3324 280.192 15.3244 280.32 15.3084C280.608 15.2604 280.888 15.1004 281.16 14.8284C281.432 14.5564 281.616 14.2204 281.712 13.8204C281.76 13.5964 281.792 13.3324 281.808 13.0284C281.824 12.7244 281.832 12.5404 281.832 12.4764C281.88 12.1084 282.016 11.7964 282.24 11.5404C282.464 11.2684 282.728 11.0524 283.032 10.8924C283.448 10.6684 283.904 10.5084 284.4 10.4124C284.896 10.3164 285.352 10.2684 285.768 10.2684C286.2 10.2524 286.52 10.2684 286.728 10.3164C286.712 10.4124 286.68 10.7564 286.632 11.3484C286.584 11.9404 286.528 12.6844 286.464 13.5804C286.4 14.4764 286.336 15.4604 286.272 16.5324C286.208 17.5884 286.152 18.6524 286.104 19.7244C286.072 20.7964 286.056 21.7964 286.056 22.7244C286.056 23.6524 286.088 24.4284 286.152 25.0524C286.216 25.6764 286.312 26.0764 286.44 26.2524ZM277.512 22.7004C277.464 23.3244 277.536 23.8444 277.728 24.2604C277.936 24.6604 278.192 24.9644 278.496 25.1724C278.816 25.3644 279.128 25.4684 279.432 25.4844C280.008 25.5004 280.448 25.3564 280.752 25.0524C281.072 24.7324 281.288 24.3164 281.4 23.8044C281.512 23.2764 281.568 22.7164 281.568 22.1244C281.568 21.2284 281.392 20.5804 281.04 20.1804C280.688 19.7804 280.136 19.6044 279.384 19.6524C278.904 19.6844 278.488 19.9164 278.136 20.3484C277.8 20.7804 277.592 21.5644 277.512 22.7004Z" fill="white"/>
<path d="M297.255 15.3324C297.575 15.2524 297.871 15.3324 298.143 15.5724C298.415 15.8124 298.655 16.1404 298.863 16.5564C299.087 16.9564 299.271 17.3724 299.415 17.8044C299.559 18.2204 299.671 18.5724 299.751 18.8604C299.831 19.1484 299.871 19.2924 299.871 19.2924C299.871 19.2924 299.679 19.3324 299.295 19.4124C298.927 19.4764 298.463 19.6124 297.903 19.8204C297.359 20.0124 296.815 20.3084 296.271 20.7084C295.951 20.9484 295.647 21.2364 295.359 21.5724C295.071 21.9084 294.823 22.3404 294.615 22.8684C294.407 23.3804 294.255 24.0604 294.159 24.9084C294.111 25.3404 294.103 25.7884 294.135 26.2524C294.167 26.7164 294.183 27.1084 294.183 27.4284C294.199 27.7164 294.239 27.9244 294.303 28.0524C294.383 28.1644 294.447 28.2604 294.495 28.3404C294.287 28.5324 293.903 28.7484 293.343 28.9884C292.799 29.2124 292.199 29.3244 291.543 29.3244C290.903 29.3244 290.431 29.1164 290.127 28.7004C289.823 28.2844 289.671 27.7084 289.671 26.9724C289.671 26.7964 289.663 26.4124 289.647 25.8204C289.647 25.2124 289.639 24.4844 289.623 23.6364C289.623 22.7884 289.615 21.9084 289.599 20.9964C289.599 20.0844 289.591 19.2364 289.575 18.4524C289.575 17.6524 289.567 17.0044 289.551 16.5084C289.551 16.0124 289.551 15.7644 289.551 15.7644C289.711 15.7324 289.983 15.7084 290.367 15.6924C290.767 15.6764 291.199 15.6924 291.663 15.7404C292.127 15.7884 292.559 15.9004 292.959 16.0764C293.151 16.1564 293.407 16.2364 293.727 16.3164C294.063 16.3804 294.383 16.4124 294.687 16.4124C295.007 16.4124 295.239 16.3644 295.383 16.2684C295.687 16.0444 295.991 15.8524 296.295 15.6924C296.615 15.5324 296.935 15.4124 297.255 15.3324Z" fill="white"/>
<path d="M314.073 24.8844C314.089 25.2364 314.112 25.6684 314.145 26.1804C314.193 26.6924 314.297 27.1884 314.457 27.6684C314.617 28.1484 314.872 28.5324 315.224 28.8204C314.824 29.0924 314.416 29.2844 314 29.3964C313.584 29.5244 313.176 29.5564 312.776 29.4924C312.664 29.4604 312.544 29.4204 312.417 29.3724C312.289 29.3404 312.112 29.2924 311.888 29.2284C311.52 29.1164 311.089 29.0924 310.592 29.1564C310.096 29.2204 309.577 29.3004 309.033 29.3964C308.504 29.5084 307.984 29.5644 307.473 29.5644C306.641 29.5644 305.809 29.4204 304.977 29.1324C304.145 28.8284 303.393 28.3644 302.721 27.7404C302.049 27.1164 301.536 26.3244 301.184 25.3644C300.832 24.4044 300.729 23.2524 300.872 21.9084C300.968 20.9804 301.232 20.1324 301.665 19.3644C302.097 18.5804 302.625 17.9084 303.249 17.3484C303.889 16.7724 304.561 16.3324 305.264 16.0284C305.984 15.7084 306.68 15.5564 307.352 15.5724C307.864 15.5884 308.257 15.6044 308.529 15.6204C308.816 15.6364 309.185 15.6764 309.633 15.7404C309.905 15.7724 310.249 15.7324 310.664 15.6204C311.08 15.5084 311.497 15.3884 311.913 15.2604C312.345 15.1164 312.713 15.0444 313.017 15.0444C313.48 15.0284 313.809 15.0444 314 15.0924C314.192 15.1244 314.353 15.1564 314.48 15.1884C314.384 15.4764 314.305 15.9084 314.241 16.4844C314.177 17.0604 314.129 17.7164 314.096 18.4524C314.081 19.1724 314.064 19.9244 314.048 20.7084C314.033 21.4924 314.025 22.2444 314.025 22.9644C314.04 23.6844 314.057 24.3244 314.073 24.8844ZM305.049 22.6764C305.081 23.4764 305.225 24.1004 305.48 24.5484C305.753 24.9804 306.073 25.2844 306.441 25.4604C306.825 25.6364 307.192 25.7244 307.544 25.7244C308.249 25.7404 308.768 25.4684 309.104 24.9084C309.44 24.3484 309.6 23.5724 309.585 22.5804C309.585 22.3084 309.552 21.9884 309.488 21.6204C309.44 21.2524 309.345 20.8924 309.201 20.5404C309.073 20.1884 308.888 19.8924 308.648 19.6524C308.424 19.4124 308.129 19.2924 307.76 19.2924C307.025 19.2924 306.376 19.5644 305.816 20.1084C305.272 20.6524 305.017 21.5084 305.049 22.6764Z" fill="white"/>
<path d="M15.4384 20.4174C15.0165 20.1369 14.5281 19.9726 14.0224 19.9412C13.5168 19.9097 13.0118 20.0121 12.5583 20.238L12.2871 20.3737L12.9131 21.626L13.1843 21.4903C13.4169 21.3743 13.6759 21.3218 13.9353 21.3379C14.1947 21.3541 14.4452 21.4383 14.6616 21.5822C14.99 21.8005 15.3597 21.9491 15.7479 22.0188C16.136 22.0884 16.5344 22.0777 16.9182 21.9872C16.9374 22.0664 16.9583 22.1447 16.9818 22.2221L16.7988 22.4691C16.7537 22.5342 16.6908 22.5849 16.6177 22.6151C16.5445 22.6454 16.4642 22.654 16.3864 22.6398C16.0575 22.588 15.7207 22.6281 15.4131 22.7556C15.1055 22.8831 14.8391 23.093 14.6433 23.3623L14.2383 23.9089L15.3632 24.7423L15.7682 24.1957C15.8132 24.1306 15.8761 24.0798 15.9492 24.0495C16.0224 24.0192 16.1027 24.0107 16.1806 24.0249C16.4489 24.0674 16.7234 24.0486 16.9835 23.97C17.2435 23.8914 17.4824 23.755 17.6823 23.571C17.6985 23.5917 17.7146 23.6126 17.7311 23.633C17.6388 23.8581 17.4923 24.057 17.3047 24.2119C17.117 24.3667 16.894 24.4729 16.6555 24.5209C16.1588 24.6209 15.6973 24.8501 15.3175 25.1854C14.9377 25.5207 14.653 25.9502 14.4922 26.4307L14.3959 26.7184L15.7242 27.161L15.8204 26.8734C15.9028 26.6269 16.0488 26.4064 16.2436 26.2344C16.4385 26.0623 16.6753 25.9447 16.9301 25.8934C17.3167 25.8154 17.6831 25.6588 18.0067 25.4333C18.3303 25.2079 18.6042 24.9184 18.8113 24.5828C18.8805 24.6252 18.9511 24.6656 19.0231 24.7039L19.0685 25.0092C19.0827 25.0871 19.0741 25.1674 19.0438 25.2405C19.0136 25.3136 18.9628 25.3765 18.8978 25.4215C18.6285 25.6174 18.4185 25.8838 18.291 26.1915C18.1636 26.4991 18.1236 26.836 18.1756 27.165L18.2757 27.8377L19.6604 27.6317L19.5603 26.9589C19.5462 26.881 19.5548 26.8007 19.5851 26.7276C19.6153 26.6544 19.6661 26.5916 19.7311 26.5465C19.9506 26.3869 20.1313 26.1798 20.2596 25.9407C20.3879 25.7015 20.4605 25.4365 20.4721 25.1653C20.4983 25.1687 20.5246 25.1726 20.5514 25.1755C20.6447 25.3997 20.6813 25.6434 20.658 25.8852C20.6347 26.1269 20.5522 26.3591 20.4177 26.5614C20.1372 26.9833 19.9729 27.4717 19.9414 27.9773C19.9099 28.483 20.0124 28.988 20.2384 29.4414L20.374 29.7127L21.6263 29.0867L21.4906 28.8155C21.3747 28.5829 21.3221 28.3239 21.3383 28.0645C21.3544 27.8051 21.4387 27.5546 21.5825 27.3382C21.8006 27.0098 21.949 26.64 22.0184 26.2519C22.0879 25.8638 22.0769 25.4656 21.9862 25.0819C22.0655 25.0629 22.1443 25.0416 22.2224 25.018L22.4694 25.201C22.5345 25.2461 22.5852 25.3089 22.6155 25.3821C22.6458 25.4552 22.6543 25.5355 22.6401 25.6134C22.5883 25.9423 22.6283 26.2792 22.7558 26.5868C22.8833 26.8944 23.0932 27.1608 23.3625 27.3566L23.9092 27.7615L24.7425 26.6366L24.1959 26.2317C24.1308 26.1866 24.0801 26.1238 24.0498 26.0506C24.0195 25.9775 24.0109 25.8972 24.0251 25.8193C24.0675 25.551 24.0487 25.2765 23.9701 25.0165C23.8915 24.7564 23.7552 24.5175 23.5712 24.3175C23.592 24.3014 23.6128 24.2853 23.6333 24.2687C23.8584 24.3611 24.0572 24.5075 24.2121 24.6952C24.367 24.8828 24.4731 25.1058 24.5211 25.3444C24.6211 25.841 24.8503 26.3026 25.1856 26.6824C25.5209 27.0622 25.9504 27.3469 26.4309 27.5077L26.7187 27.6039L27.1612 26.2757L26.8736 26.1795C26.6271 26.0971 26.4067 25.9511 26.2346 25.7562C26.0625 25.5614 25.9449 25.3246 25.8936 25.0698C25.8156 24.6832 25.659 24.3167 25.4336 23.9931C25.2081 23.6695 24.9186 23.3957 24.583 23.1885C24.6255 23.1193 24.6658 23.0487 24.7042 22.9768L25.0095 22.9314C25.0873 22.9172 25.1676 22.9258 25.2407 22.9561C25.3138 22.9863 25.3767 23.037 25.4218 23.1021C25.5893 23.3328 25.8092 23.5204 26.0633 23.6496C26.3175 23.7788 26.5987 23.8459 26.8838 23.8453C26.978 23.8452 27.072 23.8382 27.1652 23.8243L27.838 23.7242L27.6319 22.3394L26.9591 22.4395C26.8812 22.4538 26.8009 22.4453 26.7277 22.415C26.6546 22.3847 26.5917 22.3339 26.5467 22.2687C26.3872 22.0492 26.1801 21.8686 25.9409 21.7403C25.7017 21.612 25.4367 21.5393 25.1656 21.5278C25.1689 21.5015 25.1728 21.4753 25.1757 21.4484C25.3999 21.3551 25.6437 21.3185 25.8854 21.3418C26.1271 21.3651 26.3594 21.4477 26.5616 21.5821C26.9835 21.8626 27.4719 22.0269 27.9776 22.0584C28.4832 22.0899 28.9882 21.9875 29.4417 21.7615L29.7129 21.6259L29.0869 20.3736L28.8157 20.5093C28.5831 20.6253 28.3241 20.6778 28.0647 20.6617C27.8053 20.6455 27.5548 20.5612 27.3384 20.4173C27.01 20.1992 26.6403 20.0509 26.2521 19.9814C25.864 19.912 25.4658 19.923 25.0821 20.0137C25.0631 19.9343 25.0418 19.8555 25.0182 19.7774L25.2013 19.5304C25.2463 19.4653 25.3091 19.4146 25.3823 19.3843C25.4554 19.354 25.5358 19.3455 25.6136 19.3597C25.9425 19.4116 26.2794 19.3716 26.587 19.2441C26.8946 19.1166 27.161 18.9067 27.3568 18.6373L27.7618 18.0907L26.6369 17.2574L26.2319 17.804C26.1868 17.869 26.124 17.9197 26.0508 17.95C25.9777 17.9803 25.8974 17.9889 25.8195 17.9748C25.5512 17.9324 25.2767 17.9512 25.0167 18.0298C24.7566 18.1084 24.5177 18.2447 24.3178 18.4286C24.3016 18.4079 24.2855 18.3871 24.2689 18.3666C24.3613 18.1415 24.5078 17.9427 24.6954 17.7878C24.8831 17.6329 25.1061 17.5267 25.3446 17.4787C25.8413 17.3788 26.3028 17.1496 26.6826 16.8143C27.0624 16.479 27.3471 16.0494 27.5079 15.569L27.6042 15.2812L26.2759 14.8386L26.1797 15.1262C26.0973 15.3728 25.9513 15.5932 25.7565 15.7653C25.5616 15.9373 25.3248 16.055 25.07 16.1062C24.6834 16.1843 24.317 16.3409 23.9934 16.5663C23.6698 16.7918 23.3959 17.0813 23.1888 17.4169C23.1195 17.3745 23.0489 17.3341 22.977 17.2957L22.9316 16.9904C22.9174 16.9125 22.926 16.8323 22.9563 16.7591C22.9865 16.686 23.0372 16.6232 23.1023 16.5781C23.3716 16.3823 23.5816 16.1158 23.7091 15.8081C23.8365 15.5005 23.8765 15.1636 23.8245 14.8347L23.7244 14.1619L22.3397 14.368L22.4398 15.0407C22.4539 15.1186 22.4453 15.1989 22.415 15.2721C22.3848 15.3452 22.334 15.4081 22.269 15.4531C22.0495 15.6127 21.8688 15.8198 21.7405 16.059C21.6122 16.2981 21.5396 16.5632 21.528 16.8343C21.5018 16.831 21.4755 16.827 21.4487 16.8242C21.3554 16.5999 21.3188 16.3562 21.3421 16.1145C21.3654 15.8728 21.4479 15.6405 21.5824 15.4383C21.8629 15.0164 22.0272 14.528 22.0587 14.0223C22.0902 13.5167 21.9877 13.0116 21.7617 12.5582L21.6261 12.287L20.3738 12.9129L20.5095 13.1842C20.6254 13.4168 20.678 13.6758 20.6618 13.9351C20.6457 14.1945 20.5614 14.445 20.4176 14.6614C20.1995 14.9899 20.0511 15.3596 19.9817 15.7477C19.9122 16.1358 19.9232 16.5341 20.0139 16.9178C19.9343 16.937 19.8555 16.9579 19.7777 16.9817L19.5307 16.7986C19.4656 16.7536 19.4149 16.6907 19.3846 16.6176C19.3543 16.5444 19.3457 16.4641 19.36 16.3862C19.4118 16.0573 19.3718 15.7205 19.2443 15.4129C19.1168 15.1053 18.9069 14.8389 18.6376 14.6431L18.0909 14.2381L17.2576 15.363L17.8042 15.768C17.8693 15.813 17.92 15.8759 17.9503 15.949C17.9806 16.0221 17.9892 16.1025 17.975 16.1803C17.9326 16.4487 17.9514 16.7231 18.03 16.9832C18.1086 17.2432 18.2449 17.4822 18.4289 17.6821C18.4081 17.6983 18.3873 17.7144 18.3668 17.7309C18.1417 17.6386 17.9429 17.4921 17.788 17.3045C17.6331 17.1168 17.527 16.8938 17.479 16.6553C17.379 16.1586 17.1498 15.6971 16.8145 15.3173C16.4792 14.9374 16.0497 14.6528 15.5692 14.4919L15.2814 14.3957L14.8388 15.7239L15.1265 15.8202C15.373 15.9026 15.5934 16.0486 15.7655 16.2434C15.9376 16.4382 16.0552 16.675 16.1065 16.9299C16.1845 17.3165 16.3411 17.6829 16.5665 18.0065C16.792 18.3301 17.0815 18.604 17.4171 18.8111C17.3747 18.8803 17.3343 18.9509 17.2959 19.0229L16.9906 19.0683C16.9128 19.0824 16.8325 19.0739 16.7594 19.0436C16.6862 19.0133 16.6234 18.9626 16.5783 18.8976C16.3825 18.6282 16.116 18.4182 15.8084 18.2908C15.5007 18.1633 15.1638 18.1234 14.8349 18.1753L14.1621 18.2754L14.3682 19.6602L15.041 19.5601C15.1189 19.546 15.1992 19.5545 15.2723 19.5848C15.3454 19.6151 15.4083 19.6658 15.4534 19.7309C15.613 19.9504 15.8201 20.131 16.0592 20.2593C16.2984 20.3876 16.5634 20.4602 16.8345 20.4718C16.8312 20.498 16.8273 20.5243 16.8244 20.5512C16.6002 20.6445 16.3564 20.6812 16.1146 20.6578C15.8729 20.6345 15.6406 20.5519 15.4384 20.4174ZM21 18.1998C21.5538 18.1998 22.0952 18.364 22.5556 18.6717C23.0161 18.9794 23.375 19.4167 23.5869 19.9283C23.7988 20.4399 23.8543 21.0029 23.7462 21.5461C23.6382 22.0892 23.3715 22.5881 22.9799 22.9797C22.5884 23.3713 22.0894 23.638 21.5463 23.746C21.0032 23.854 20.4402 23.7986 19.9285 23.5867C19.4169 23.3747 18.9796 23.0159 18.6719 22.5554C18.3643 22.095 18.2001 21.5536 18.2001 20.9998C18.2009 20.2575 18.4962 19.5458 19.0211 19.0208C19.546 18.4959 20.2577 18.2007 21 18.1998Z" fill="white"/>
<path d="M9.80009 20.9998C9.8004 23.524 10.6535 25.9741 12.221 27.9526C13.7885 29.9311 15.9784 31.322 18.4356 31.8998C20.8928 32.4775 23.4732 32.2081 25.758 31.1353C28.0429 30.0625 29.8984 28.2492 31.0234 25.9896C32.1484 23.73 32.4771 21.1566 31.956 18.6867C31.4349 16.2169 30.0947 13.9955 28.1528 12.383C26.2108 10.7704 23.781 9.86121 21.2575 9.80287C18.734 9.74452 16.2647 10.5405 14.2503 12.0616L15.0948 13.1781C16.7927 11.8884 18.8678 11.1932 21 11.1999C23.2301 11.2 25.3935 11.9608 27.1327 13.3566C28.872 14.7523 30.0832 16.6996 30.5662 18.8768C31.0492 21.0539 30.7752 23.3307 29.7894 25.331C28.8035 27.3314 27.1649 28.9357 25.1441 29.8789C23.1233 30.8221 20.8413 31.0479 18.6748 30.5188C16.5084 29.9898 14.5872 28.7377 13.2286 26.9692C11.87 25.2008 11.1552 23.0218 11.2023 20.7922C11.2494 18.5626 12.0556 16.4158 13.4877 14.7063L12.4149 13.8067C10.7265 15.8234 9.8009 18.3696 9.80009 20.9998Z" fill="white"/>
<path d="M21 40.5997C17.8583 40.6038 14.7617 39.8507 11.9727 38.4043C9.18374 36.9578 6.78439 34.8605 4.9779 32.29C5.30407 31.9668 5.51523 31.5455 5.57902 31.0907C5.64281 30.6359 5.5557 30.1728 5.33105 29.7723C5.10641 29.3718 4.75662 29.056 4.3353 28.8733C3.91398 28.6906 3.44438 28.6512 2.99848 28.761C1.65806 25.6469 1.14756 22.2386 1.51678 18.8684C1.88601 15.4983 3.12234 12.2813 5.10521 9.53135C5.72273 9.82402 6.42579 9.88142 7.0826 9.69279C7.73942 9.50415 8.30488 9.08244 8.67299 8.5067C9.0411 7.93095 9.18659 7.24072 9.08217 6.56538C8.97776 5.89004 8.63061 5.27597 8.10581 4.83828C7.58101 4.40059 6.91459 4.16934 6.23148 4.18787C5.54837 4.20641 4.89547 4.47345 4.39517 4.93895C3.89488 5.40445 3.58154 6.03644 3.5139 6.71645C3.44625 7.39646 3.62895 8.07779 4.02774 8.63273C1.85405 11.6174 0.505074 15.1221 0.11663 18.7939C-0.271814 22.4657 0.313985 26.1751 1.81505 29.5485C1.58286 29.8607 1.44205 30.2314 1.40834 30.619C1.37463 31.0067 1.44935 31.3961 1.62415 31.7437C1.79896 32.0914 2.06696 32.3836 2.39823 32.5877C2.7295 32.7918 3.111 32.8999 3.50012 32.8997C3.56408 32.8997 3.62734 32.8964 3.6899 32.891C5.35539 35.3151 7.51146 37.3623 10.0185 38.9002C12.5255 40.438 15.3276 41.4321 18.2432 41.8182C21.1589 42.2042 24.1231 41.9736 26.944 41.1411C29.7648 40.3087 32.3794 38.8931 34.6183 36.9859L33.71 35.9207C30.1638 38.9408 25.658 40.5996 21 40.5997ZM6.30011 5.59981C6.577 5.59981 6.84767 5.68192 7.0779 5.83576C7.30813 5.98959 7.48757 6.20824 7.59353 6.46405C7.6995 6.71987 7.72722 7.00136 7.6732 7.27293C7.61918 7.54451 7.48584 7.79396 7.29005 7.98975C7.09426 8.18555 6.8448 8.31888 6.57323 8.3729C6.30166 8.42692 6.02017 8.3992 5.76435 8.29323C5.50854 8.18727 5.28989 8.00783 5.13605 7.7776C4.98222 7.54738 4.90011 7.2767 4.90011 6.99981C4.90055 6.62864 5.04819 6.2728 5.31065 6.01035C5.5731 5.74789 5.92894 5.60025 6.30011 5.59981ZM2.80012 30.7997C2.80012 30.6613 2.84117 30.5259 2.91809 30.4108C2.99501 30.2957 3.10433 30.206 3.23224 30.153C3.36015 30.1 3.50089 30.0862 3.63668 30.1132C3.77247 30.1402 3.89719 30.2068 3.99509 30.3047C4.09299 30.4026 4.15965 30.5274 4.18666 30.6632C4.21367 30.7989 4.19981 30.9397 4.14683 31.0676C4.09385 31.1955 4.00413 31.3048 3.88901 31.3817C3.7739 31.4587 3.63856 31.4997 3.50012 31.4997C3.31453 31.4995 3.1366 31.4257 3.00537 31.2945C2.87414 31.1632 2.80033 30.9853 2.80012 30.7997ZM42 20.9998C42.005 17.9934 41.362 15.0213 40.1148 12.2859C38.8676 9.55048 37.0454 7.11601 34.7725 5.14831C35.0002 4.69969 35.0592 4.18417 34.9387 3.6957C34.8181 3.20724 34.5261 2.77833 34.1158 2.48714C33.7055 2.19595 33.2043 2.06185 32.7034 2.10929C32.2025 2.15672 31.7354 2.38254 31.387 2.74557C28.0207 0.831976 24.1911 -0.114355 20.3208 0.0110216C16.4506 0.136398 12.6903 1.32861 9.45482 3.45607L10.2253 4.62489C13.2636 2.6274 16.7973 1.51376 20.4318 1.40834C24.0664 1.30292 27.6587 2.20986 30.8076 4.02788C30.803 4.08476 30.8 4.14207 30.8 4.20008C30.7998 4.55009 30.8871 4.89459 31.054 5.20224C31.2209 5.50988 31.4622 5.77089 31.7557 5.96152C32.0492 6.15214 32.3858 6.26632 32.7347 6.29366C33.0837 6.32101 33.4339 6.26064 33.7536 6.11807C37.2435 9.1093 39.5714 13.2316 40.3307 17.7649C41.0899 22.2981 40.2322 26.954 37.9074 30.9192C37.2533 30.7207 36.5492 30.7676 35.9272 31.0512C35.3052 31.3348 34.8081 31.8356 34.529 32.4596C34.2499 33.0836 34.208 33.788 34.4112 34.4407C34.6144 35.0934 35.0487 35.6496 35.6327 36.0049C36.2167 36.3602 36.9103 36.4902 37.5834 36.3706C38.2564 36.251 38.8627 35.89 39.2886 35.3553C39.7144 34.8205 39.9306 34.1488 39.8965 33.4661C39.8624 32.7833 39.5805 32.1365 39.1035 31.6468C41.0033 28.4205 42.0035 24.7439 42 20.9998ZM32.2 4.19982C32.2 4.06137 32.2411 3.92603 32.318 3.81092C32.3949 3.69581 32.5042 3.60609 32.6321 3.55311C32.76 3.50012 32.9008 3.48626 33.0366 3.51327C33.1724 3.54028 33.2971 3.60695 33.395 3.70485C33.4929 3.80274 33.5595 3.92747 33.5866 4.06326C33.6136 4.19904 33.5997 4.33979 33.5467 4.4677C33.4937 4.5956 33.404 4.70493 33.2889 4.78184C33.1738 4.85876 33.0385 4.89982 32.9 4.89982C32.7144 4.89961 32.5365 4.82579 32.4053 4.69456C32.274 4.56333 32.2002 4.38541 32.2 4.19982ZM37.1 34.9997C36.8231 34.9997 36.5524 34.9176 36.3222 34.7638C36.092 34.6099 35.9125 34.3913 35.8066 34.1355C35.7006 33.8796 35.6729 33.5982 35.7269 33.3266C35.7809 33.055 35.9142 32.8056 36.11 32.6098C36.3058 32.414 36.5553 32.2806 36.8269 32.2266C37.0984 32.1726 37.3799 32.2003 37.6357 32.3063C37.8916 32.4122 38.1102 32.5917 38.264 32.8219C38.4179 33.0521 38.5 33.3228 38.5 33.5997C38.4995 33.9709 38.3519 34.3267 38.0894 34.5892C37.827 34.8516 37.4712 34.9993 37.1 34.9997Z" fill="white"/>
<path d="M34.3 18.1998C34.3 18.6152 34.4232 19.0212 34.6539 19.3665C34.8847 19.7119 35.2126 19.981 35.5964 20.14C35.9801 20.2989 36.4023 20.3405 36.8097 20.2595C37.217 20.1784 37.5912 19.9784 37.8849 19.6847C38.1786 19.3911 38.3786 19.0169 38.4596 18.6095C38.5407 18.2022 38.4991 17.7799 38.3401 17.3962C38.1812 17.0125 37.912 16.6845 37.5667 16.4538C37.2213 16.223 36.8153 16.0998 36.4 16.0998C36.3801 16.0998 36.3604 16.1008 36.3408 16.1013C35.2964 12.8521 33.249 10.0176 30.4927 8.00493C27.7363 5.99232 24.413 4.90524 21 4.89988C12.1225 4.89988 4.90011 12.1223 4.90011 20.9998C4.90116 24.0292 5.75619 26.997 7.36709 29.5626C8.978 32.1282 11.2795 34.1877 14.0076 35.5048C14.0028 35.5697 14.0003 35.6347 14.0001 35.6998C13.9999 36.325 14.2092 36.9324 14.5944 37.4249C14.9796 37.9174 15.5186 38.2668 16.1255 38.4174C16.7324 38.5679 17.3722 38.5109 17.9429 38.2555C18.5136 38.0001 18.9824 37.561 19.2746 37.0081C19.8477 37.0691 20.4237 37.0997 21 37.0998C25.1593 37.0997 29.1571 35.49 32.156 32.608C35.1549 29.726 36.9221 25.7952 37.0875 21.6393L35.6885 21.5846C35.5373 25.379 33.9237 28.9677 31.1856 31.5989C28.4475 34.2301 24.7975 35.6997 21 35.6998C20.5313 35.6998 20.0624 35.6757 19.5983 35.6319C19.5842 35.035 19.3795 34.4583 19.0142 33.986C18.6489 33.5138 18.1422 33.1707 17.568 33.007C16.9938 32.8434 16.3824 32.8676 15.823 33.0762C15.2636 33.2849 14.7856 33.667 14.4588 34.1667C12.009 32.9478 9.94769 31.0698 8.50643 28.7439C7.06518 26.4179 6.30111 23.7361 6.3001 20.9998C6.3001 12.8942 12.8944 6.29988 21 6.29988C24.1307 6.30471 27.1785 7.30649 29.7015 9.15998C32.2245 11.0135 34.0916 13.6224 35.0322 16.6084C34.8025 16.8051 34.6182 17.0492 34.4918 17.3239C34.3654 17.5986 34.3 17.8974 34.3 18.1998ZM16.8001 34.2998C17.077 34.2998 17.3476 34.3819 17.5779 34.5357C17.8081 34.6895 17.9875 34.9082 18.0935 35.164C18.1995 35.4198 18.2272 35.7013 18.1732 35.9729C18.1191 36.2445 17.9858 36.4939 17.79 36.6897C17.5942 36.8855 17.3448 37.0188 17.0732 37.0729C16.8016 37.1269 16.5201 37.0991 16.2643 36.9932C16.0085 36.8872 15.7898 36.7078 15.636 36.4776C15.4822 36.2473 15.4001 35.9767 15.4001 35.6998C15.4005 35.3286 15.5481 34.9728 15.8106 34.7103C16.0731 34.4478 16.4289 34.3002 16.8001 34.2998ZM37.1 18.1998C37.1 18.3383 37.0589 18.4736 36.982 18.5887C36.9051 18.7038 36.7958 18.7936 36.6679 18.8465C36.54 18.8995 36.3992 18.9134 36.2634 18.8864C36.1276 18.8594 36.0029 18.7927 35.905 18.6948C35.8071 18.5969 35.7405 18.4722 35.7134 18.3364C35.6864 18.2006 35.7003 18.0599 35.7533 17.932C35.8063 17.804 35.896 17.6947 36.0111 17.6178C36.1262 17.5409 36.2615 17.4998 36.4 17.4998C36.5856 17.5 36.7635 17.5739 36.8947 17.7051C37.026 17.8363 37.0998 18.0142 37.1 18.1998Z" fill="white"/>
</svg>
